<svg width="346" height="626" viewBox="0 0 346 626" fill="none" xmlns="http://www.w3.org/2000/svg">
<mask id="path-1-outside-1_40_59" maskUnits="userSpaceOnUse" x="5" y="64" width="340" height="507" fill="black">
<rect fill="white" x="5" y="64" width="340" height="507"/>
<path d="M114.551 222.5C118.551 222.5 121.884 223.833 124.551 226.5C127.217 229.167 128.551 232.5 128.551 236.5C128.551 240.333 127.217 243.583 124.551 246.25C121.884 248.75 118.551 250 114.551 250H29.5508C25.2174 250 21.8008 248.667 19.3008 246C16.8008 243.333 15.5508 239.917 15.5508 235.75C15.5508 231.583 17.0508 227.917 20.0508 224.75L74.5508 166.5C80.7174 159.833 85.5508 153 89.0508 146C92.7175 139 94.5508 132.917 94.5508 127.75C94.5508 119.417 92.1341 112.75 87.3008 107.75C82.4675 102.583 76.0508 100 68.0508 100C64.8841 100 61.6341 100.75 58.3008 102.25C54.9675 103.75 51.7175 105.833 48.5508 108.5C45.5508 111.167 42.7175 114.25 40.0508 117.75C38.0508 120.417 36.0508 122.083 34.0508 122.75C32.0508 123.417 30.2174 123.75 28.5508 123.75C24.8841 123.75 21.4674 122.417 18.3008 119.75C15.3008 116.917 13.8008 113.667 13.8008 110C13.8008 107.167 14.7174 104.417 16.5508 101.75C18.5508 99.0833 20.9674 96.3333 23.8008 93.5C27.9674 89.3333 32.6341 85.6667 37.8008 82.5C42.9675 79.3333 48.3008 76.9167 53.8008 75.25C59.3008 73.4167 64.6341 72.5 69.8008 72.5C80.9675 72.5 90.6341 74.75 98.8008 79.25C107.134 83.5833 113.551 89.8333 118.051 98C122.551 106 124.801 115.5 124.801 126.5C124.801 135.667 122.051 145.917 116.551 157.25C111.217 168.417 103.967 178.917 94.8008 188.75L61.0508 224.75L58.3008 222.5H114.551ZM269.135 252.5C254.801 252.5 242.635 248.75 232.635 241.25C222.801 233.583 215.301 223 210.135 209.5C204.968 195.833 202.385 180.167 202.385 162.5C202.385 144.667 204.968 129 210.135 115.5C215.301 102 222.801 91.5 232.635 84C242.635 76.3333 254.801 72.5 269.135 72.5C283.468 72.5 295.551 76.3333 305.385 84C315.385 91.5 322.968 102 328.135 115.5C333.301 129 335.885 144.667 335.885 162.5C335.885 180.167 333.301 195.833 328.135 209.5C322.968 223 315.385 233.583 305.385 241.25C295.551 248.75 283.468 252.5 269.135 252.5ZM269.135 222.5C276.135 222.5 282.135 220.333 287.135 216C292.301 211.5 296.301 204.833 299.135 196C301.968 187 303.385 175.833 303.385 162.5C303.385 149 301.968 137.833 299.135 129C296.301 120.167 292.301 113.583 287.135 109.25C282.135 104.75 276.135 102.5 269.135 102.5C262.301 102.5 256.301 104.75 251.135 109.25C245.968 113.583 241.968 120.167 239.135 129C236.301 137.833 234.885 149 234.885 162.5C234.885 175.833 236.301 187 239.135 196C241.968 204.833 245.968 211.5 251.135 216C256.301 220.333 262.301 222.5 269.135 222.5ZM117.847 535.5C121.847 535.5 125.18 536.833 127.847 539.5C130.513 542.167 131.847 545.5 131.847 549.5C131.847 553.333 130.513 556.583 127.847 559.25C125.18 561.75 121.847 563 117.847 563H32.8467C28.5133 563 25.0967 561.667 22.5967 559C20.0967 556.333 18.8467 552.917 18.8467 548.75C18.8467 544.583 20.3467 540.917 23.3467 537.75L77.8467 479.5C84.0133 472.833 88.8467 466 92.3467 459C96.0134 452 97.8467 445.917 97.8467 440.75C97.8467 432.417 95.43 425.75 90.5967 420.75C85.7634 415.583 79.3467 413 71.3467 413C68.18 413 64.93 413.75 61.5967 415.25C58.2633 416.75 55.0133 418.833 51.8467 421.5C48.8467 424.167 46.0133 427.25 43.3467 430.75C41.3467 433.417 39.3467 435.083 37.3467 435.75C35.3467 436.417 33.5133 436.75 31.8467 436.75C28.18 436.75 24.7633 435.417 21.5967 432.75C18.5967 429.917 17.0967 426.667 17.0967 423C17.0967 420.167 18.0133 417.417 19.8467 414.75C21.8467 412.083 24.2633 409.333 27.0967 406.5C31.2633 402.333 35.93 398.667 41.0967 395.5C46.2633 392.333 51.5967 389.917 57.0967 388.25C62.5967 386.417 67.93 385.5 73.0967 385.5C84.2634 385.5 93.93 387.75 102.097 392.25C110.43 396.583 116.847 402.833 121.347 411C125.847 419 128.097 428.5 128.097 439.5C128.097 448.667 125.347 458.917 119.847 470.25C114.513 481.417 107.263 491.917 98.0967 501.75L64.3467 537.75L61.5967 535.5H117.847ZM292.931 563C288.764 563 285.264 561.583 282.431 558.75C279.597 555.75 278.181 552.083 278.181 547.75V430.25L283.431 431.5L235.181 491.25L233.931 488H322.431C326.431 488 329.764 489.333 332.431 492C335.097 494.667 336.431 498 336.431 502C336.431 505.833 335.097 509.083 332.431 511.75C329.764 514.25 326.431 515.5 322.431 515.5H213.181C209.681 515.5 206.264 514.083 202.931 511.25C199.764 508.417 198.181 504.917 198.181 500.75C198.181 497.083 199.431 493.75 201.931 490.75L280.931 394C282.264 392.167 284.014 390.75 286.181 389.75C288.347 388.583 290.764 388 293.431 388C297.764 388 301.264 389.5 303.931 392.5C306.764 395.333 308.181 398.917 308.181 403.25V547.75C308.181 552.083 306.681 555.75 303.681 558.75C300.847 561.583 297.264 563 292.931 563Z"/>
</mask>
<path d="M124.551 226.5L130.208 220.843L130.208 220.843L124.551 226.5ZM124.551 246.25L130.022 252.086L130.116 251.998L130.208 251.907L124.551 246.25ZM19.3008 246L25.1371 240.528L25.1371 240.528L19.3008 246ZM20.0508 224.75L25.8584 230.252L25.8755 230.234L25.8926 230.216L20.0508 224.75ZM74.5508 166.5L80.3926 171.966L80.4081 171.949L80.4236 171.932L74.5508 166.5ZM89.0508 146L81.9641 142.288L81.9291 142.355L81.8954 142.422L89.0508 146ZM87.3008 107.75L81.4586 113.215L81.5034 113.263L81.5489 113.31L87.3008 107.75ZM58.3008 102.25L55.0179 94.9546L55.0179 94.9546L58.3008 102.25ZM48.5508 108.5L43.3977 102.381L43.3158 102.45L43.2359 102.521L48.5508 108.5ZM40.0508 117.75L33.6873 112.902L33.669 112.926L33.6508 112.95L40.0508 117.75ZM34.0508 122.75L36.5806 130.339L36.5806 130.339L34.0508 122.75ZM18.3008 119.75L12.8078 125.566L12.9734 125.723L13.1477 125.869L18.3008 119.75ZM16.5508 101.75L10.1508 96.95L10.0519 97.0819L9.95844 97.2178L16.5508 101.75ZM23.8008 93.5L18.1439 87.8431L18.1439 87.8431L23.8008 93.5ZM53.8008 75.25L56.1209 82.9062L56.2262 82.8743L56.3306 82.8395L53.8008 75.25ZM98.8008 79.25L94.9399 86.2567L95.0244 86.3032L95.11 86.3477L98.8008 79.25ZM118.051 98L111.044 101.861L111.061 101.892L111.078 101.922L118.051 98ZM116.551 157.25L109.354 153.757L109.343 153.78L109.332 153.802L116.551 157.25ZM94.8008 188.75L100.637 194.222L100.645 194.213L100.653 194.205L94.8008 188.75ZM61.0508 224.75L55.9849 230.942L61.7726 235.677L66.8871 230.222L61.0508 224.75ZM58.3008 222.5V214.5H35.8895L53.2349 228.692L58.3008 222.5ZM114.551 230.5C116.572 230.5 117.826 231.089 118.894 232.157L130.208 220.843C125.943 216.578 120.53 214.5 114.551 214.5V230.5ZM118.894 232.157C119.962 233.225 120.551 234.479 120.551 236.5H136.551C136.551 230.521 134.473 225.108 130.208 220.843L118.894 232.157ZM120.551 236.5C120.551 238.251 120.033 239.454 118.894 240.593L130.208 251.907C134.402 247.712 136.551 242.416 136.551 236.5H120.551ZM119.079 240.414C118.041 241.387 116.727 242 114.551 242V258C120.374 258 125.727 256.113 130.022 252.086L119.079 240.414ZM114.551 242H29.5508V258H114.551V242ZM29.5508 242C26.9834 242 25.8449 241.284 25.1371 240.528L13.4645 251.472C17.7566 256.05 23.4515 258 29.5508 258V242ZM25.1371 240.528C24.2233 239.554 23.5508 238.19 23.5508 235.75H7.55078C7.55078 241.643 9.37826 247.113 13.4645 251.472L25.1371 240.528ZM23.5508 235.75C23.5508 233.734 24.1932 232.01 25.8584 230.252L14.2432 219.248C9.90832 223.824 7.55078 229.433 7.55078 235.75H23.5508ZM25.8926 230.216L80.3926 171.966L68.709 161.034L14.209 219.284L25.8926 230.216ZM80.4236 171.932C87.023 164.798 92.3193 157.351 96.2062 149.578L81.8954 142.422C78.7822 148.649 74.4119 154.869 68.678 161.068L80.4236 171.932ZM96.1374 149.712C100.114 142.12 102.551 134.716 102.551 127.75H86.5508C86.5508 131.118 85.3204 135.88 81.9641 142.288L96.1374 149.712ZM102.551 127.75C102.551 117.78 99.6064 108.969 93.0527 102.19L81.5489 113.31C84.6619 116.53 86.5508 121.053 86.5508 127.75H102.551ZM93.143 102.285C86.592 95.282 77.9461 92 68.0508 92V108C74.1555 108 78.3429 109.885 81.4586 113.215L93.143 102.285ZM68.0508 92C63.5906 92 59.2249 93.0614 55.0179 94.9546L61.5837 109.545C64.0433 108.439 66.1776 108 68.0508 108V92ZM55.0179 94.9546C50.9273 96.7954 47.0568 99.2994 43.3977 102.381L53.7039 114.619C56.3782 112.367 59.0076 110.705 61.5837 109.545L55.0179 94.9546ZM43.2359 102.521C39.816 105.561 36.6367 109.031 33.6873 112.902L46.4142 122.598C48.7982 119.469 51.2856 116.773 53.8657 114.479L43.2359 102.521ZM33.6508 112.95C32.9251 113.918 32.3412 114.511 31.9293 114.854C31.5216 115.194 31.3812 115.207 31.521 115.161L36.5806 130.339C40.7845 128.938 43.9977 125.821 46.4508 122.55L33.6508 112.95ZM31.521 115.161C30.1308 115.624 29.1645 115.75 28.5508 115.75V131.75C31.2704 131.75 33.9708 131.209 36.5806 130.339L31.521 115.161ZM28.5508 115.75C27.0133 115.75 25.3761 115.249 23.4539 113.631L13.1477 125.869C17.5588 129.584 22.7549 131.75 28.5508 131.75V115.75ZM23.7938 113.934C22.1729 112.403 21.8008 111.179 21.8008 110H5.80078C5.80078 116.154 8.42865 121.43 12.8078 125.566L23.7938 113.934ZM21.8008 110C21.8008 109.008 22.0919 107.811 23.1431 106.282L9.95844 97.2178C7.34298 101.022 5.80078 105.326 5.80078 110H21.8008ZM22.9508 106.55C24.6837 104.239 26.8404 101.774 29.4576 99.1568L18.1439 87.8431C15.0945 90.8926 12.4178 93.9272 10.1508 96.95L22.9508 106.55ZM29.4576 99.1568C33.1671 95.4473 37.3355 92.1682 41.9813 89.3208L33.6203 75.6792C27.9327 79.1651 22.7678 83.2193 18.1439 87.8431L29.4576 99.1568ZM41.9813 89.3208C46.5976 86.4914 51.3087 84.3644 56.1209 82.9062L51.4807 67.5938C45.2929 69.4689 39.3373 72.1752 33.6203 75.6792L41.9813 89.3208ZM56.3306 82.8395C61.1133 81.2452 65.592 80.5 69.8008 80.5V64.5C63.6763 64.5 57.4882 65.5881 51.271 67.6605L56.3306 82.8395ZM69.8008 80.5C79.8834 80.5 88.1688 82.5257 94.9399 86.2567L102.662 72.2433C93.0994 66.9743 82.0515 64.5 69.8008 64.5V80.5ZM95.11 86.3477C102.054 89.9585 107.312 95.0874 111.044 101.861L125.057 94.1391C119.79 84.5793 112.214 77.2081 102.492 72.1523L95.11 86.3477ZM111.078 101.922C114.783 108.508 116.801 116.602 116.801 126.5H132.801C132.801 114.398 130.319 103.492 125.023 94.0779L111.078 101.922ZM116.801 126.5C116.801 134.092 114.512 143.128 109.354 153.757L123.748 160.743C129.59 148.705 132.801 137.242 132.801 126.5H116.801ZM109.332 153.802C104.378 164.173 97.6082 174.006 88.949 183.295L100.653 194.205C110.327 183.827 118.056 172.66 123.77 160.698L109.332 153.802ZM88.9645 183.278L55.2145 219.278L66.8871 230.222L100.637 194.222L88.9645 183.278ZM66.1167 218.558L63.3667 216.308L53.2349 228.692L55.9849 230.942L66.1167 218.558ZM58.3008 230.5H114.551V214.5H58.3008V230.5ZM232.635 241.25L227.716 247.559L227.775 247.605L227.835 247.65L232.635 241.25ZM210.135 209.5L202.652 212.329L202.657 212.344L202.663 212.359L210.135 209.5ZM210.135 115.5L202.663 112.641L202.663 112.641L210.135 115.5ZM232.635 84L237.486 90.361L237.494 90.3549L237.502 90.3488L232.635 84ZM305.385 84L300.466 90.309L300.525 90.3551L300.585 90.4L305.385 84ZM328.135 115.5L335.606 112.641L335.606 112.641L328.135 115.5ZM328.135 209.5L335.606 212.359L335.612 212.344L335.618 212.329L328.135 209.5ZM305.385 241.25L310.236 247.611L310.244 247.605L310.252 247.599L305.385 241.25ZM287.135 216L292.374 222.046L292.382 222.039L292.389 222.033L287.135 216ZM299.135 196L306.752 198.443L306.759 198.423L306.766 198.402L299.135 196ZM299.135 129L291.517 131.443L291.517 131.443L299.135 129ZM287.135 109.25L281.783 115.196L281.887 115.29L281.994 115.38L287.135 109.25ZM251.135 109.25L256.276 115.38L256.333 115.332L256.389 115.283L251.135 109.25ZM239.135 129L231.517 126.557L231.517 126.557L239.135 129ZM239.135 196L231.504 198.402L231.51 198.423L231.517 198.443L239.135 196ZM251.135 216L245.881 222.033L245.937 222.082L245.994 222.13L251.135 216ZM269.135 244.5C256.268 244.5 245.852 241.163 237.435 234.85L227.835 247.65C239.417 256.337 253.335 260.5 269.135 260.5V244.5ZM237.554 234.941C229.042 228.305 222.336 219 217.606 206.641L202.663 212.359C208.266 227 216.561 238.862 227.716 247.559L237.554 234.941ZM217.618 206.671C212.856 194.076 210.385 179.397 210.385 162.5H194.385C194.385 180.937 197.08 197.591 202.652 212.329L217.618 206.671ZM210.385 162.5C210.385 145.423 212.86 130.761 217.606 118.359L202.663 112.641C197.076 127.239 194.385 143.91 194.385 162.5H210.385ZM217.606 118.359C222.333 106.009 229.022 96.8169 237.486 90.361L227.783 77.639C216.581 86.1831 208.27 97.9906 202.663 112.641L217.606 118.359ZM237.502 90.3488C245.917 83.8977 256.308 80.5 269.135 80.5V64.5C253.295 64.5 239.353 68.769 227.767 77.6511L237.502 90.3488ZM269.135 80.5C281.965 80.5 292.243 83.8982 300.466 90.309L310.304 77.6909C298.86 68.7684 284.971 64.5 269.135 64.5V80.5ZM300.585 90.4C309.199 96.8609 315.95 106.043 320.663 118.359L335.606 112.641C329.987 97.9569 321.57 86.1391 310.185 77.6L300.585 90.4ZM320.663 118.359C325.41 130.761 327.885 145.423 327.885 162.5H343.885C343.885 143.91 341.193 127.239 335.606 112.641L320.663 118.359ZM327.885 162.5C327.885 179.397 325.413 194.076 320.652 206.671L335.618 212.329C341.189 197.591 343.885 180.937 343.885 162.5H327.885ZM320.663 206.641C315.946 218.967 309.179 228.261 300.517 234.901L310.252 247.599C321.591 238.906 329.99 227.033 335.606 212.359L320.663 206.641ZM300.533 234.889C292.308 241.162 282.005 244.5 269.135 244.5V260.5C284.931 260.5 298.795 256.338 310.236 247.611L300.533 234.889ZM269.135 230.5C277.938 230.5 285.831 227.717 292.374 222.046L281.895 209.954C278.439 212.95 274.331 214.5 269.135 214.5V230.5ZM292.389 222.033C298.98 216.292 303.626 208.191 306.752 198.443L291.517 193.557C288.977 201.475 285.623 206.708 281.881 209.967L292.389 222.033ZM306.766 198.402C309.922 188.377 311.385 176.34 311.385 162.5H295.385C295.385 175.327 294.015 185.623 291.504 193.598L306.766 198.402ZM311.385 162.5C311.385 148.513 309.926 136.45 306.752 126.557L291.517 131.443C294.01 139.217 295.385 149.487 295.385 162.5H311.385ZM306.752 126.557C303.625 116.806 298.957 108.724 292.276 103.12L281.994 115.38C285.646 118.443 288.978 123.527 291.517 131.443L306.752 126.557ZM292.486 103.304C285.953 97.4238 278.023 94.5 269.135 94.5V110.5C274.247 110.5 278.316 112.076 281.783 115.196L292.486 103.304ZM269.135 94.5C260.364 94.5 252.499 97.4525 245.881 103.217L256.389 115.283C260.103 112.047 264.239 110.5 269.135 110.5V94.5ZM245.994 103.12C239.313 108.724 234.645 116.806 231.517 126.557L246.752 131.443C249.292 123.527 252.624 118.443 256.276 115.38L245.994 103.12ZM231.517 126.557C228.344 136.45 226.885 148.513 226.885 162.5H242.885C242.885 149.487 244.259 139.217 246.752 131.443L231.517 126.557ZM226.885 162.5C226.885 176.34 228.348 188.377 231.504 198.402L246.766 193.598C244.255 185.623 242.885 175.327 242.885 162.5H226.885ZM231.517 198.443C234.644 208.191 239.29 216.292 245.881 222.033L256.389 209.967C252.646 206.708 249.292 201.475 246.752 193.557L231.517 198.443ZM245.994 222.13C252.622 227.689 260.449 230.5 269.135 230.5V214.5C264.154 214.5 259.981 212.978 256.276 209.87L245.994 222.13ZM127.847 539.5L133.504 533.843L133.504 533.843L127.847 539.5ZM127.847 559.25L133.318 565.086L133.412 564.998L133.504 564.907L127.847 559.25ZM22.5967 559L28.433 553.528L28.433 553.528L22.5967 559ZM23.3467 537.75L29.1543 543.252L29.1714 543.234L29.1884 543.216L23.3467 537.75ZM77.8467 479.5L83.6884 484.966L83.704 484.949L83.7195 484.932L77.8467 479.5ZM92.3467 459L85.26 455.288L85.225 455.355L85.1913 455.422L92.3467 459ZM90.5967 420.75L84.7545 426.215L84.7993 426.263L84.8448 426.31L90.5967 420.75ZM61.5967 415.25L58.3138 407.955L58.3138 407.955L61.5967 415.25ZM51.8467 421.5L46.6936 415.381L46.6117 415.45L46.5318 415.521L51.8467 421.5ZM43.3467 430.75L36.9832 425.902L36.9649 425.926L36.9467 425.95L43.3467 430.75ZM37.3467 435.75L39.8765 443.339L39.8765 443.339L37.3467 435.75ZM21.5967 432.75L16.1037 438.566L16.2693 438.723L16.4436 438.869L21.5967 432.75ZM19.8467 414.75L13.4467 409.95L13.3478 410.082L13.2543 410.218L19.8467 414.75ZM27.0967 406.5L21.4398 400.843L21.4398 400.843L27.0967 406.5ZM57.0967 388.25L59.4168 395.906L59.5221 395.874L59.6265 395.839L57.0967 388.25ZM102.097 392.25L98.2358 399.257L98.3203 399.303L98.4059 399.348L102.097 392.25ZM121.347 411L114.34 414.861L114.357 414.892L114.374 414.922L121.347 411ZM119.847 470.25L112.649 466.757L112.639 466.78L112.628 466.802L119.847 470.25ZM98.0967 501.75L103.933 507.222L103.941 507.213L103.948 507.205L98.0967 501.75ZM64.3467 537.75L59.2808 543.942L65.0685 548.677L70.183 543.222L64.3467 537.75ZM61.5967 535.5V527.5H39.1854L56.5308 541.692L61.5967 535.5ZM117.847 543.5C119.868 543.5 121.122 544.089 122.19 545.157L133.504 533.843C129.239 529.578 123.826 527.5 117.847 527.5V543.5ZM122.19 545.157C123.258 546.225 123.847 547.479 123.847 549.5H139.847C139.847 543.521 137.769 538.108 133.504 533.843L122.19 545.157ZM123.847 549.5C123.847 551.251 123.329 552.454 122.19 553.593L133.504 564.907C137.698 560.712 139.847 555.416 139.847 549.5H123.847ZM122.375 553.414C121.337 554.387 120.023 555 117.847 555V571C123.67 571 129.023 569.113 133.318 565.086L122.375 553.414ZM117.847 555H32.8467V571H117.847V555ZM32.8467 555C30.2793 555 29.1408 554.284 28.433 553.528L16.7604 564.472C21.0525 569.05 26.7474 571 32.8467 571V555ZM28.433 553.528C27.5192 552.554 26.8467 551.19 26.8467 548.75H10.8467C10.8467 554.643 12.6742 560.113 16.7604 564.472L28.433 553.528ZM26.8467 548.75C26.8467 546.734 27.4891 545.01 29.1543 543.252L17.5391 532.248C13.2042 536.824 10.8467 542.433 10.8467 548.75H26.8467ZM29.1884 543.216L83.6884 484.966L72.0049 474.034L17.5049 532.284L29.1884 543.216ZM83.7195 484.932C90.3189 477.798 95.6152 470.351 99.5021 462.578L85.1913 455.422C82.0781 461.649 77.7078 467.869 71.9739 474.068L83.7195 484.932ZM99.4333 462.712C103.41 455.12 105.847 447.716 105.847 440.75H89.8467C89.8467 444.118 88.6163 448.88 85.26 455.288L99.4333 462.712ZM105.847 440.75C105.847 430.78 102.902 421.969 96.3486 415.19L84.8448 426.31C87.9578 429.53 89.8467 434.053 89.8467 440.75H105.847ZM96.4389 415.285C89.8879 408.282 81.242 405 71.3467 405V421C77.4514 421 81.6388 422.885 84.7545 426.215L96.4389 415.285ZM71.3467 405C66.8865 405 62.5208 406.061 58.3138 407.955L64.8796 422.545C67.3392 421.439 69.4735 421 71.3467 421V405ZM58.3138 407.955C54.2232 409.795 50.3526 412.299 46.6936 415.381L56.9998 427.619C59.674 425.367 62.3035 423.705 64.8796 422.545L58.3138 407.955ZM46.5318 415.521C43.1119 418.561 39.9326 422.031 36.9832 425.902L49.7101 435.598C52.0941 432.469 54.5815 429.773 57.1616 427.479L46.5318 415.521ZM36.9467 425.95C36.221 426.918 35.6371 427.511 35.2252 427.854C34.8175 428.194 34.6771 428.207 34.8169 428.161L39.8765 443.339C44.0804 441.938 47.2936 438.821 49.7467 435.55L36.9467 425.95ZM34.8169 428.161C33.4267 428.624 32.4604 428.75 31.8467 428.75V444.75C34.5663 444.75 37.2667 444.209 39.8765 443.339L34.8169 428.161ZM31.8467 428.75C30.3092 428.75 28.672 428.249 26.7498 426.631L16.4436 438.869C20.8547 442.584 26.0508 444.75 31.8467 444.75V428.75ZM27.0897 426.934C25.4688 425.403 25.0967 424.179 25.0967 423H9.09668C9.09668 429.154 11.7245 434.43 16.1037 438.566L27.0897 426.934ZM25.0967 423C25.0967 422.008 25.3878 420.811 26.439 419.282L13.2543 410.218C10.6389 414.022 9.09668 418.326 9.09668 423H25.0967ZM26.2467 419.55C27.9796 417.239 30.1363 414.774 32.7535 412.157L21.4398 400.843C18.3904 403.893 15.7137 406.927 13.4467 409.95L26.2467 419.55ZM32.7535 412.157C36.463 408.447 40.6314 405.168 45.2772 402.321L36.9162 388.679C31.2286 392.165 26.0637 396.219 21.4398 400.843L32.7535 412.157ZM45.2772 402.321C49.8935 399.491 54.6046 397.364 59.4168 395.906L54.7766 380.594C48.5888 382.469 42.6332 385.175 36.9162 388.679L45.2772 402.321ZM59.6265 395.839C64.4092 394.245 68.8879 393.5 73.0967 393.5V377.5C66.9722 377.5 60.7841 378.588 54.5669 380.661L59.6265 395.839ZM73.0967 393.5C83.1793 393.5 91.4647 395.526 98.2358 399.257L105.958 385.243C96.3953 379.974 85.3474 377.5 73.0967 377.5V393.5ZM98.4059 399.348C105.35 402.959 110.608 408.087 114.34 414.861L128.353 407.139C123.086 397.579 115.51 390.208 105.788 385.152L98.4059 399.348ZM114.374 414.922C118.079 421.508 120.097 429.602 120.097 439.5H136.097C136.097 427.398 133.615 416.492 128.319 407.078L114.374 414.922ZM120.097 439.5C120.097 447.092 117.808 456.128 112.649 466.757L127.044 473.743C132.886 461.705 136.097 450.242 136.097 439.5H120.097ZM112.628 466.802C107.674 477.173 100.904 487.006 92.2449 496.295L103.948 507.205C113.623 496.827 121.352 485.66 127.066 473.698L112.628 466.802ZM92.2604 496.278L58.5104 532.278L70.183 543.222L103.933 507.222L92.2604 496.278ZM69.4126 531.558L66.6626 529.308L56.5308 541.692L59.2808 543.942L69.4126 531.558ZM61.5967 543.5H117.847V527.5H61.5967V543.5ZM282.431 558.75L276.615 564.243L276.693 564.326L276.774 564.407L282.431 558.75ZM278.181 430.25L280.034 422.468L270.181 420.122V430.25H278.181ZM283.431 431.5L289.655 436.526L297.625 426.656L285.284 423.718L283.431 431.5ZM235.181 491.25L227.714 494.122L232.692 507.065L241.405 496.276L235.181 491.25ZM233.931 488V480H222.282L226.464 490.872L233.931 488ZM332.431 492L338.088 486.343L338.088 486.343L332.431 492ZM332.431 511.75L337.902 517.586L337.996 517.498L338.088 517.407L332.431 511.75ZM202.931 511.25L197.596 517.212L197.672 517.28L197.749 517.346L202.931 511.25ZM201.931 490.75L208.076 495.871L208.102 495.841L208.127 495.81L201.931 490.75ZM280.931 394L287.127 399.06L287.269 398.886L287.401 398.705L280.931 394ZM286.181 389.75L289.533 397.014L289.757 396.91L289.973 396.794L286.181 389.75ZM303.931 392.5L297.951 397.815L298.108 397.991L298.274 398.157L303.931 392.5ZM303.681 558.75L298.024 553.093L298.024 553.093L303.681 558.75ZM292.931 555C290.791 555 289.355 554.361 288.088 553.093L276.774 564.407C281.173 568.806 286.737 571 292.931 571V555ZM288.247 553.257C286.892 551.822 286.181 550.154 286.181 547.75H270.181C270.181 554.013 272.303 559.678 276.615 564.243L288.247 553.257ZM286.181 547.75V430.25H270.181V547.75H286.181ZM276.328 438.032L281.578 439.282L285.284 423.718L280.034 422.468L276.328 438.032ZM277.207 426.474L228.957 486.224L241.405 496.276L289.655 436.526L277.207 426.474ZM242.647 488.378L241.397 485.128L226.464 490.872L227.714 494.122L242.647 488.378ZM233.931 496H322.431V480H233.931V496ZM322.431 496C324.452 496 325.706 496.589 326.774 497.657L338.088 486.343C333.822 482.078 328.41 480 322.431 480V496ZM326.774 497.657C327.842 498.725 328.431 499.979 328.431 502H344.431C344.431 496.021 342.353 490.608 338.088 486.343L326.774 497.657ZM328.431 502C328.431 503.751 327.913 504.954 326.774 506.093L338.088 517.407C342.282 513.212 344.431 507.916 344.431 502H328.431ZM326.959 505.914C325.921 506.887 324.607 507.5 322.431 507.5V523.5C328.254 523.5 333.607 521.613 337.902 517.586L326.959 505.914ZM322.431 507.5H213.181V523.5H322.431V507.5ZM213.181 507.5C212.017 507.5 210.372 507.075 208.112 505.154L197.749 517.346C202.156 521.091 207.344 523.5 213.181 523.5V507.5ZM208.265 505.288C206.756 503.938 206.181 502.59 206.181 500.75H190.181C190.181 507.244 192.772 512.895 197.596 517.212L208.265 505.288ZM206.181 500.75C206.181 499.082 206.69 497.535 208.076 495.871L195.785 485.629C192.171 489.965 190.181 495.085 190.181 500.75H206.181ZM208.127 495.81L287.127 399.06L274.734 388.94L195.734 485.69L208.127 495.81ZM287.401 398.705C287.887 398.036 288.539 397.472 289.533 397.014L282.828 382.486C279.489 384.028 276.641 386.297 274.461 389.295L287.401 398.705ZM289.973 396.794C290.878 396.306 291.974 396 293.431 396V380C289.554 380 285.816 380.86 282.388 382.706L289.973 396.794ZM293.431 396C295.684 396 296.934 396.67 297.951 397.815L309.91 387.185C305.594 382.33 299.844 380 293.431 380V396ZM298.274 398.157C299.477 399.36 300.181 400.848 300.181 403.25H316.181C316.181 396.986 314.051 391.306 309.588 386.843L298.274 398.157ZM300.181 403.25V547.75H316.181V403.25H300.181ZM300.181 547.75C300.181 550.012 299.488 551.629 298.024 553.093L309.338 564.407C313.873 559.871 316.181 554.154 316.181 547.75H300.181ZM298.024 553.093C296.821 554.296 295.333 555 292.931 555V571C299.195 571 304.874 568.87 309.338 564.407L298.024 553.093Z" fill="url(#paint0_linear_40_59)" mask="url(#path-1-outside-1_40_59)"/>
<defs>
<linearGradient id="paint0_linear_40_59" x1="394.308" y1="-67.9731" x2="8.40691" y2="111.276" gradientUnits="userSpaceOnUse">
<stop stop-color="#E67D1D"/>
<stop offset="1" stop-color="#3F1658"/>
</linearGradient>
</defs>
</svg>
