<svg width="52" height="52" viewBox="0 0 52 52" fill="none" xmlns="http://www.w3.org/2000/svg">
<path d="M28.9554 4.58907L30.8505 15.4562C31.3577 18.3647 33.6353 20.6423 36.5438 21.1495L47.4109 23.0446C50.7238 23.6223 50.7237 28.3777 47.4109 28.9554L36.5438 30.8505C33.6353 31.3577 31.3577 33.6353 30.8505 36.5438L28.9554 47.4109C28.3777 50.7238 23.6223 50.7237 23.0446 47.4109L21.1495 36.5438C20.6423 33.6353 18.3647 31.3577 15.4562 30.8505L4.58908 28.9554C1.27625 28.3777 1.27626 23.6223 4.58907 23.0446L15.4562 21.1495C18.3647 20.6423 20.6423 18.3647 21.1495 15.4562L23.0446 4.58908C23.6223 1.27625 28.3777 1.27626 28.9554 4.58907Z" stroke="#FEFEFE" stroke-width="4"/>
</svg>
